<svg id="svg8" width="350.7mm" height="137.5mm" version="1.1" viewBox="0 0 350.7 137.5" xmlns="http://www.w3.org/2000/svg">
<g id="layer1" transform="translate(-127.5 -10.15)">
<g id="g943" transform="translate(123.6)">
<path id="path919" d="m4.338 10.57h24.46v130.5c-3.005 8.245-19.88 8.017-24.46 0z" style="fill-rule:evenodd;fill:#ffffff;stroke-linejoin:round;stroke-width:.8393;stroke:#000000"/>
<path id="path921" d="m29.37 10.57h24.46v130.5c-3.005 8.245-19.88 8.017-24.46 0z" style="fill-rule:evenodd;fill:#ffffff;stroke-linejoin:round;stroke-width:.8393;stroke:#000000"/>
<path id="path923" d="m20.42 10.84h17.44v90.18c-2.143 5.696-14.18 5.538-17.44 0z" style="fill-rule:evenodd;fill:#000000;stroke-linejoin:round;stroke-width:.5891;stroke:#000000"/>
<path id="path925" d="m154.5 10.57h24.46v130.5c-3.005 8.245-19.88 8.017-24.46 0z" style="fill-rule:evenodd;fill:#ffffff;stroke-linejoin:round;stroke-width:.8393;stroke:#000000"/>
<path id="path927" d="m54.39 10.57h24.46v130.5c-3.005 8.245-19.88 8.017-24.46 0z" style="fill-rule:evenodd;fill:#ffffff;stroke-linejoin:round;stroke-width:.8393;stroke:#000000"/>
<path id="path929" d="m79.42 10.57h24.46v130.5c-3.005 8.245-19.88 8.017-24.46 0z" style="fill-rule:evenodd;fill:#ffffff;stroke-linejoin:round;stroke-width:.8393;stroke:#000000"/>
<path id="path931" d="m104.5 10.57h24.46v130.5c-3.005 8.245-19.88 8.017-24.46 0z" style="fill-rule:evenodd;fill:#ffffff;stroke-linejoin:round;stroke-width:.8393;stroke:#000000"/>
<path id="path933" d="m129.5 10.57h24.46v130.5c-3.005 8.245-19.88 8.017-24.46 0z" style="fill-rule:evenodd;fill:#ffffff;stroke-linejoin:round;stroke-width:.8393;stroke:#000000"/>
<path id="path935" d="m45.29 10.84h17.44v90.18c-2.143 5.696-14.18 5.538-17.44 0z" style="fill-rule:evenodd;fill:#000000;stroke-linejoin:round;stroke-width:.5891;stroke:#000000"/>
<path id="path937" d="m94.51 10.84h17.44v90.18c-2.143 5.696-14.18 5.538-17.44 0z" style="fill-rule:evenodd;fill:#000000;stroke-linejoin:round;stroke-width:.5891;stroke:#000000"/>
<path id="path939" d="m119.4 10.84h17.44v90.18c-2.143 5.696-14.18 5.538-17.44 0z" style="fill-rule:evenodd;fill:#000000;stroke-linejoin:round;stroke-width:.5891;stroke:#000000"/>
<path id="path941" d="m144.2 10.84h17.44v90.18c-2.143 5.696-14.18 5.538-17.44 0z" style="fill-rule:evenodd;fill:#000000;stroke-linejoin:round;stroke-width:.5891;stroke:#000000"/>
</g>
<g id="g969" transform="translate(298.8)">
<path id="path945" d="m4.338 10.57h24.46v130.5c-3.005 8.245-19.88 8.017-24.46 0z" style="fill-rule:evenodd;fill:#ffffff;stroke-linejoin:round;stroke-width:.8393;stroke:#000000"/>
<path id="path947" d="m29.37 10.57h24.46v130.5c-3.005 8.245-19.88 8.017-24.46 0z" style="fill-rule:evenodd;fill:#ffffff;stroke-linejoin:round;stroke-width:.8393;stroke:#000000"/>
<path id="path949" d="m20.42 10.84h17.44v90.18c-2.143 5.696-14.18 5.538-17.44 0z" style="fill-rule:evenodd;fill:#000000;stroke-linejoin:round;stroke-width:.5891;stroke:#000000"/>
<path id="path951" d="m154.5 10.57h24.46v130.5c-3.005 8.245-19.88 8.017-24.46 0z" style="fill-rule:evenodd;fill:#ffffff;stroke-linejoin:round;stroke-width:.8393;stroke:#000000"/>
<path id="path953" d="m54.39 10.57h24.46v130.5c-3.005 8.245-19.88 8.017-24.46 0z" style="fill-rule:evenodd;fill:#ffffff;stroke-linejoin:round;stroke-width:.8393;stroke:#000000"/>
<path id="path955" d="m79.42 10.57h24.46v130.5c-3.005 8.245-19.88 8.017-24.46 0z" style="fill-rule:evenodd;fill:#ffffff;stroke-linejoin:round;stroke-width:.8393;stroke:#000000"/>
<path id="path957" d="m104.5 10.57h24.46v130.5c-3.005 8.245-19.88 8.017-24.46 0z" style="fill-rule:evenodd;fill:#ffffff;stroke-linejoin:round;stroke-width:.8393;stroke:#000000"/>
<path id="path959" d="m129.5 10.57h24.46v130.5c-3.005 8.245-19.88 8.017-24.46 0z" style="fill-rule:evenodd;fill:#ffffff;stroke-linejoin:round;stroke-width:.8393;stroke:#000000"/>
<path id="path961" d="m45.29 10.84h17.44v90.18c-2.143 5.696-14.18 5.538-17.44 0z" style="fill-rule:evenodd;fill:#000000;stroke-linejoin:round;stroke-width:.5891;stroke:#000000"/>
<path id="path963" d="m94.51 10.84h17.44v90.18c-2.143 5.696-14.18 5.538-17.44 0z" style="fill-rule:evenodd;fill:#000000;stroke-linejoin:round;stroke-width:.5891;stroke:#000000"/>
<path id="path965" d="m119.4 10.84h17.44v90.18c-2.143 5.696-14.18 5.538-17.44 0z" style="fill-rule:evenodd;fill:#000000;stroke-linejoin:round;stroke-width:.5891;stroke:#000000"/>
<path id="path967" d="m144.2 10.84h17.44v90.18c-2.143 5.696-14.18 5.538-17.44 0z" style="fill-rule:evenodd;fill:#000000;stroke-linejoin:round;stroke-width:.5891;stroke:#000000"/>
</g>
</g>
</svg>
